<?xml version="1.0" encoding="utf-8"?>
<!-- Generator: Adobe Illustrator 28.0.0, SVG Export Plug-In . SVG Version: 6.00 Build 0)  -->
<svg version="1.1"
	 id="svg3873" xmlns:svg="http://www.w3.org/2000/svg" xmlns:ns1="http://sozi.baierouge.fr" xmlns:cc="http://creativecommons.org/ns#" xmlns:rdf="http://www.w3.org/1999/02/22-rdf-syntax-ns#" xmlns:sodipodi="http://sodipodi.sourceforge.net/DTD/sodipodi-0.dtd" xmlns:inkscape="http://www.inkscape.org/namespaces/inkscape" xmlns:dc="http://purl.org/dc/elements/1.1/" inkscape:version="0.48.3.1 r9886" sodipodi:docname="map pin.svg"
	 xmlns="http://www.w3.org/2000/svg" xmlns:xlink="http://www.w3.org/1999/xlink" x="0px" y="0px" viewBox="0 0 64 46.8"
	 xml:space="preserve">
<style type="text/css">
	.st0{fill:#F41922;stroke:#5A0000;stroke-width:5.7;}
	.st1{fill:#0E232E;}
</style>
<sodipodi:namedview  bordercolor="#666666" borderopacity="1.0" id="base" inkscape:current-layer="layer1" inkscape:cx="-24.454545" inkscape:cy="30.454545" inkscape:document-units="px" inkscape:grid-bbox="true" inkscape:pageopacity="0.0" inkscape:pageshadow="2" inkscape:window-height="706" inkscape:window-maximized="1" inkscape:window-width="1366" inkscape:window-x="-8" inkscape:window-y="-8" inkscape:zoom="5.5" pagecolor="#ffffff" showgrid="true">
	</sodipodi:namedview>
<g id="layer1" inkscape:groupmode="layer" inkscape:label="Layer 1">
	<g id="g3841" transform="matrix(.18403 0 0 .17534 214.35 -157.87)">
		<path id="path3047" inkscape:connector-curvature="0" class="st0" d="M-995.7,1166.2c-0.3-0.8-1.6-6-3-11.7
			c-4.4-17.8-12.1-37-22.5-56.3c-6-11.1-7.1-12.8-24.6-40c-28.3-43.9-33.2-56.2-32.2-79.9c1-21.7,8.3-37.9,24.1-53.6
			c13.2-13,27.8-20.5,45.6-23.4c44.1-7.1,86.9,21.9,95.5,64.8c2,10,1.6,27.2-1,36.6c-2.8,10.3-13.9,31-29.6,55.3
			c-28.3,43.8-39.1,65.7-47.1,96.1C-993.5,1165.9-994.8,1168.8-995.7,1166.2L-995.7,1166.2z"/>
		
			<path id="path3049" sodipodi:cx="-994.28571" sodipodi:cy="1042.3622" sodipodi:rx="31.428572" sodipodi:ry="30" sodipodi:type="arc" class="st1" d="
			M-959.9,994.3c0,18.2-15.4,32.9-34.4,32.9c-19,0-34.4-14.7-34.4-32.9c0-18.2,15.4-32.9,34.4-32.9
			C-975.3,961.4-959.9,976.1-959.9,994.3z"/>
	</g>
</g>
</svg>
